solid OpenSCAD_Model
  facet normal -1 -0 -0
    outer loop
      vertex -33 71.6953 0
      vertex -33 71.6953 10
      vertex -33 87 0
    endloop
  endfacet
  facet normal -1 0 0
    outer loop
      vertex -33 87 0
      vertex -33 71.6953 10
      vertex -33 87 10
    endloop
  endfacet
  facet normal -0.309017 -0.951057 0
    outer loop
      vertex -0.0832137 61 6
      vertex -2 61.6228 3
      vertex -0.0832137 61 3
    endloop
  endfacet
  facet normal -0.309017 -0.951057 -3.04487e-15
    outer loop
      vertex -1 61.2979 6
      vertex -2 61.6228 3
      vertex -0.0832137 61 6
    endloop
  endfacet
  facet normal -0.309017 -0.951057 -0
    outer loop
      vertex -2 61.6228 0
      vertex -2 61.6228 3
      vertex -33 71.6953 10
    endloop
  endfacet
  facet normal -0.309017 -0.951057 0
    outer loop
      vertex -1 61.2979 10
      vertex -2 61.6228 3
      vertex -1 61.2979 6
    endloop
  endfacet
  facet normal -0.309017 -0.951057 -7.24035e-16
    outer loop
      vertex -33 71.6953 10
      vertex -2 61.6228 3
      vertex -1 61.2979 10
    endloop
  endfacet
  facet normal -0.309017 -0.951057 -0
    outer loop
      vertex -33 71.6953 0
      vertex -2 61.6228 0
      vertex -33 71.6953 10
    endloop
  endfacet
  facet normal 0 -0 -1
    outer loop
      vertex -8.87283 83.9671 0
      vertex -33 87 0
      vertex 57 87 0
    endloop
  endfacet
  facet normal -0 0 -1
    outer loop
      vertex 49.747 7.36366 0
      vertex 57 87 0
      vertex 57 -1 0
    endloop
  endfacet
  facet normal 0 -0 -1
    outer loop
      vertex -33 71.6953 0
      vertex -33 87 0
      vertex -29.5 78 0
    endloop
  endfacet
  facet normal 0 0 -1
    outer loop
      vertex -33 71.6953 0
      vertex -29.5 78 0
      vertex -29.3689 76.7525 0
    endloop
  endfacet
  facet normal 0 0 -1
    outer loop
      vertex -33 71.6953 0
      vertex -29.3689 76.7525 0
      vertex -28.9813 75.5596 0
    endloop
  endfacet
  facet normal 0 0 -1
    outer loop
      vertex -33 71.6953 0
      vertex -28.9813 75.5596 0
      vertex -28.3541 74.4733 0
    endloop
  endfacet
  facet normal 0 0 -1
    outer loop
      vertex -33 71.6953 0
      vertex -28.3541 74.4733 0
      vertex -27.5148 73.5411 0
    endloop
  endfacet
  facet normal 0 0 -1
    outer loop
      vertex -33 71.6953 0
      vertex -27.5148 73.5411 0
      vertex -26.5 72.8038 0
    endloop
  endfacet
  facet normal -0 0 -1
    outer loop
      vertex -33 71.6953 0
      vertex -26.5 72.8038 0
      vertex -2 61.6228 0
    endloop
  endfacet
  facet normal 0 0 -1
    outer loop
      vertex -26.5 72.8038 0
      vertex -25.3541 72.2937 0
      vertex -2 61.6228 0
    endloop
  endfacet
  facet normal 0 0 -1
    outer loop
      vertex -8.87283 72.0329 0
      vertex -2 61.6228 0
      vertex -24.1272 72.0329 0
    endloop
  endfacet
  facet normal -0 0 -1
    outer loop
      vertex -6.5 72.8038 0
      vertex 57 87 0
      vertex -7.6459 72.2937 0
    endloop
  endfacet
  facet normal 0 0 -1
    outer loop
      vertex -2 61.6228 0
      vertex -8.87283 72.0329 0
      vertex -7.6459 72.2937 0
    endloop
  endfacet
  facet normal 0 -0 -1
    outer loop
      vertex 2.45496 73.4499 0
      vertex -7.6459 72.2937 0
      vertex 57 87 0
    endloop
  endfacet
  facet normal 0 -0 -1
    outer loop
      vertex -27.5148 82.4589 0
      vertex -33 87 0
      vertex -26.5 83.1962 0
    endloop
  endfacet
  facet normal -0 -0 -1
    outer loop
      vertex -24.1272 83.9671 0
      vertex -33 87 0
      vertex -8.87283 83.9671 0
    endloop
  endfacet
  facet normal 0 0 -1
    outer loop
      vertex -6.5 72.8038 0
      vertex -5.48522 73.5411 0
      vertex 57 87 0
    endloop
  endfacet
  facet normal 0 0 -1
    outer loop
      vertex -5.48522 73.5411 0
      vertex -4.6459 74.4733 0
      vertex 57 87 0
    endloop
  endfacet
  facet normal 0 -0 -1
    outer loop
      vertex -26.5 83.1962 0
      vertex -33 87 0
      vertex -25.3541 83.7063 0
    endloop
  endfacet
  facet normal 0 0 -1
    outer loop
      vertex -4.6459 74.4733 0
      vertex -4.01873 75.5596 0
      vertex 57 87 0
    endloop
  endfacet
  facet normal 0 0 -1
    outer loop
      vertex -4.01873 75.5596 0
      vertex -3.63111 76.7525 0
      vertex 57 87 0
    endloop
  endfacet
  facet normal 0 -0 -1
    outer loop
      vertex -25.3541 83.7063 0
      vertex -33 87 0
      vertex -24.1272 83.9671 0
    endloop
  endfacet
  facet normal 0 0 -1
    outer loop
      vertex -3.63111 76.7525 0
      vertex -3.5 78 0
      vertex 57 87 0
    endloop
  endfacet
  facet normal 0 -0 -1
    outer loop
      vertex -3.5 78 0
      vertex -3.63111 79.2475 0
      vertex 57 87 0
    endloop
  endfacet
  facet normal 0 -0 -1
    outer loop
      vertex -3.63111 79.2475 0
      vertex -4.01873 80.4404 0
      vertex 57 87 0
    endloop
  endfacet
  facet normal 0 -0 -1
    outer loop
      vertex -4.01873 80.4404 0
      vertex -4.6459 81.5267 0
      vertex 57 87 0
    endloop
  endfacet
  facet normal 0 -0 -1
    outer loop
      vertex -4.6459 81.5267 0
      vertex -5.48522 82.4589 0
      vertex 57 87 0
    endloop
  endfacet
  facet normal 0 -0 -1
    outer loop
      vertex -5.48522 82.4589 0
      vertex -6.5 83.1962 0
      vertex 57 87 0
    endloop
  endfacet
  facet normal 0 -0 -1
    outer loop
      vertex -6.5 83.1962 0
      vertex -7.6459 83.7063 0
      vertex 57 87 0
    endloop
  endfacet
  facet normal 0 -0 -1
    outer loop
      vertex -7.6459 83.7063 0
      vertex -8.87283 83.9671 0
      vertex 57 87 0
    endloop
  endfacet
  facet normal 0 -0 -1
    outer loop
      vertex -28.3541 81.5267 0
      vertex -33 87 0
      vertex -27.5148 82.4589 0
    endloop
  endfacet
  facet normal 0 -0 -1
    outer loop
      vertex -28.9813 80.4404 0
      vertex -33 87 0
      vertex -28.3541 81.5267 0
    endloop
  endfacet
  facet normal 0 -0 -1
    outer loop
      vertex -29.3689 79.2475 0
      vertex -33 87 0
      vertex -28.9813 80.4404 0
    endloop
  endfacet
  facet normal 0 -0 -1
    outer loop
      vertex -29.5 78 0
      vertex -33 87 0
      vertex -29.3689 79.2475 0
    endloop
  endfacet
  facet normal 0 -0 -1
    outer loop
      vertex -2 61.6228 0
      vertex -7.6459 72.2937 0
      vertex 1.09806 72.3678 0
    endloop
  endfacet
  facet normal 0 0 -1
    outer loop
      vertex -2 61.6228 0
      vertex 1.09806 72.3678 0
      vertex 1.09806 70.6322 0
    endloop
  endfacet
  facet normal 0 0 -1
    outer loop
      vertex -2 61.6228 0
      vertex 1.09806 70.6322 0
      vertex 2.45496 69.5501 0
    endloop
  endfacet
  facet normal 0 0 -1
    outer loop
      vertex -2 61.6228 0
      vertex 2.45496 69.5501 0
      vertex 4.14698 69.9363 0
    endloop
  endfacet
  facet normal 0 0 -1
    outer loop
      vertex -2 61.6228 0
      vertex 4.14698 69.9363 0
      vertex 57 87 0
    endloop
  endfacet
  facet normal -0 0 -1
    outer loop
      vertex 4.14698 73.0637 0
      vertex 57 87 0
      vertex 4.9 71.5 0
    endloop
  endfacet
  facet normal -0 0 -1
    outer loop
      vertex 2.45496 73.4499 0
      vertex 57 87 0
      vertex 4.14698 73.0637 0
    endloop
  endfacet
  facet normal 0 -0 -1
    outer loop
      vertex 1.09806 72.3678 0
      vertex -7.6459 72.2937 0
      vertex 2.45496 73.4499 0
    endloop
  endfacet
  facet normal 0 0 -1
    outer loop
      vertex 8.4 5.8 0
      vertex 57 -1 0
      vertex 7.64698 4.23634 0
    endloop
  endfacet
  facet normal 0 0 -1
    outer loop
      vertex 4.59806 4.93223 0
      vertex -2 -1 0
      vertex 4.59806 6.66777 0
    endloop
  endfacet
  facet normal 0 0 -1
    outer loop
      vertex 5.95496 3.85014 0
      vertex -2 -1 0
      vertex 4.59806 4.93223 0
    endloop
  endfacet
  facet normal 0 0 -1
    outer loop
      vertex 57 -1 0
      vertex -2 -1 0
      vertex 5.95496 3.85014 0
    endloop
  endfacet
  facet normal 0 0 -1
    outer loop
      vertex 57 -1 0
      vertex 5.95496 3.85014 0
      vertex 7.64698 4.23634 0
    endloop
  endfacet
  facet normal 0 0 -1
    outer loop
      vertex 7.64698 7.36366 0
      vertex 57 -1 0
      vertex 8.4 5.8 0
    endloop
  endfacet
  facet normal 0 0 -1
    outer loop
      vertex 49.747 4.23634 0
      vertex 57 -1 0
      vertex 48.055 3.85014 0
    endloop
  endfacet
  facet normal -0 0 -1
    outer loop
      vertex 4.9 71.5 0
      vertex 57 87 0
      vertex 4.14698 69.9363 0
    endloop
  endfacet
  facet normal 0 0 -1
    outer loop
      vertex 46.6981 4.93223 0
      vertex 7.64698 7.36366 0
      vertex 46.6981 6.66777 0
    endloop
  endfacet
  facet normal 0 0 -1
    outer loop
      vertex 48.055 3.85014 0
      vertex 7.64698 7.36366 0
      vertex 46.6981 4.93223 0
    endloop
  endfacet
  facet normal 0 0 -1
    outer loop
      vertex 57 -1 0
      vertex 7.64698 7.36366 0
      vertex 48.055 3.85014 0
    endloop
  endfacet
  facet normal 0 0 -1
    outer loop
      vertex 50.5 5.8 0
      vertex 57 -1 0
      vertex 49.747 4.23634 0
    endloop
  endfacet
  facet normal -0 0 -1
    outer loop
      vertex 54 71.5 0
      vertex 57 87 0
      vertex 49.747 7.36366 0
    endloop
  endfacet
  facet normal -0 -0 -1
    outer loop
      vertex 48.055 7.74986 0
      vertex -2 61.6228 0
      vertex 49.747 7.36366 0
    endloop
  endfacet
  facet normal 0 0 -1
    outer loop
      vertex 50.1981 72.3678 0
      vertex 57 87 0
      vertex 51.555 73.4499 0
    endloop
  endfacet
  facet normal 0 0 -1
    outer loop
      vertex -24.1272 72.0329 0
      vertex -2 61.6228 0
      vertex -25.3541 72.2937 0
    endloop
  endfacet
  facet normal 0 0 -1
    outer loop
      vertex -2 61.6228 0
      vertex 57 87 0
      vertex 50.1981 72.3678 0
    endloop
  endfacet
  facet normal -0 0 -1
    outer loop
      vertex -2 61.6228 0
      vertex 50.1981 72.3678 0
      vertex 49.747 7.36366 0
    endloop
  endfacet
  facet normal -0 0 -1
    outer loop
      vertex 53.247 73.0637 0
      vertex 57 87 0
      vertex 54 71.5 0
    endloop
  endfacet
  facet normal 0 0 -1
    outer loop
      vertex 50.1981 72.3678 0
      vertex 50.1981 70.6322 0
      vertex 49.747 7.36366 0
    endloop
  endfacet
  facet normal 0 0 -1
    outer loop
      vertex 50.1981 70.6322 0
      vertex 51.555 69.5501 0
      vertex 49.747 7.36366 0
    endloop
  endfacet
  facet normal -0 0 -1
    outer loop
      vertex 51.555 73.4499 0
      vertex 57 87 0
      vertex 53.247 73.0637 0
    endloop
  endfacet
  facet normal -0 0 -1
    outer loop
      vertex 51.555 69.5501 0
      vertex 53.247 69.9363 0
      vertex 49.747 7.36366 0
    endloop
  endfacet
  facet normal -0 0 -1
    outer loop
      vertex 53.247 69.9363 0
      vertex 54 71.5 0
      vertex 49.747 7.36366 0
    endloop
  endfacet
  facet normal 0 0 -1
    outer loop
      vertex 49.747 7.36366 0
      vertex 57 -1 0
      vertex 50.5 5.8 0
    endloop
  endfacet
  facet normal 0 0 -1
    outer loop
      vertex -2 61.6228 0
      vertex 48.055 7.74986 0
      vertex 46.6981 6.66777 0
    endloop
  endfacet
  facet normal 0 0 -1
    outer loop
      vertex -2 61.6228 0
      vertex 46.6981 6.66777 0
      vertex 7.64698 7.36366 0
    endloop
  endfacet
  facet normal 0 0 -1
    outer loop
      vertex -2 61.6228 0
      vertex 7.64698 7.36366 0
      vertex 5.95496 7.74986 0
    endloop
  endfacet
  facet normal 0 0 -1
    outer loop
      vertex -2 61.6228 0
      vertex 5.95496 7.74986 0
      vertex 4.59806 6.66777 0
    endloop
  endfacet
  facet normal 0 0 -1
    outer loop
      vertex -2 61.6228 0
      vertex 4.59806 6.66777 0
      vertex -2 -1 0
    endloop
  endfacet
  facet normal 0 1 0
    outer loop
      vertex 57 87 3
      vertex 57 87 0
      vertex -1 87 3
    endloop
  endfacet
  facet normal 0 1 0
    outer loop
      vertex -33 87 0
      vertex -33 87 10
      vertex -1 87 3
    endloop
  endfacet
  facet normal 0 1 0
    outer loop
      vertex -33 87 0
      vertex -1 87 3
      vertex 57 87 0
    endloop
  endfacet
  facet normal 0 1 0
    outer loop
      vertex -1 87 3
      vertex -33 87 10
      vertex -1 87 10
    endloop
  endfacet
  facet normal 0 -0 1
    outer loop
      vertex -24.1272 72.0329 10
      vertex -33 71.6953 10
      vertex -1 61.2979 10
    endloop
  endfacet
  facet normal 0 -0 1
    outer loop
      vertex -33 87 10
      vertex -33 71.6953 10
      vertex -29.3689 76.7525 10
    endloop
  endfacet
  facet normal 0 0 1
    outer loop
      vertex -33 87 10
      vertex -29.3689 76.7525 10
      vertex -29.5 78 10
    endloop
  endfacet
  facet normal 0 0 1
    outer loop
      vertex -33 87 10
      vertex -29.5 78 10
      vertex -29.3689 79.2475 10
    endloop
  endfacet
  facet normal 0 0 1
    outer loop
      vertex -33 87 10
      vertex -29.3689 79.2475 10
      vertex -28.9813 80.4404 10
    endloop
  endfacet
  facet normal 0 0 1
    outer loop
      vertex -33 87 10
      vertex -28.9813 80.4404 10
      vertex -28.3541 81.5267 10
    endloop
  endfacet
  facet normal 0 0 1
    outer loop
      vertex -33 87 10
      vertex -28.3541 81.5267 10
      vertex -27.5148 82.4589 10
    endloop
  endfacet
  facet normal -0 0 1
    outer loop
      vertex -25.3541 83.7063 10
      vertex -33 87 10
      vertex -26.5 83.1962 10
    endloop
  endfacet
  facet normal 0 -0 1
    outer loop
      vertex -3.5 78 10
      vertex -3.63111 76.7525 10
      vertex -1 61.2979 10
    endloop
  endfacet
  facet normal -0 0 1
    outer loop
      vertex -24.1272 83.9671 10
      vertex -33 87 10
      vertex -25.3541 83.7063 10
    endloop
  endfacet
  facet normal 0 -0 1
    outer loop
      vertex -4.01873 75.5596 10
      vertex -4.6459 74.4733 10
      vertex -1 61.2979 10
    endloop
  endfacet
  facet normal 0 0 1
    outer loop
      vertex -1 87 10
      vertex -33 87 10
      vertex -24.1272 83.9671 10
    endloop
  endfacet
  facet normal 0 0 1
    outer loop
      vertex -1 87 10
      vertex -8.87283 83.9671 10
      vertex -7.6459 83.7063 10
    endloop
  endfacet
  facet normal 0 0 1
    outer loop
      vertex -1 87 10
      vertex -7.6459 83.7063 10
      vertex -6.5 83.1962 10
    endloop
  endfacet
  facet normal 0 -0 1
    outer loop
      vertex -4.6459 74.4733 10
      vertex -5.48522 73.5411 10
      vertex -1 61.2979 10
    endloop
  endfacet
  facet normal 0 0 1
    outer loop
      vertex -1 87 10
      vertex -6.5 83.1962 10
      vertex -5.48522 82.4589 10
    endloop
  endfacet
  facet normal 0 0 1
    outer loop
      vertex -1 87 10
      vertex -5.48522 82.4589 10
      vertex -4.6459 81.5267 10
    endloop
  endfacet
  facet normal 0 -0 1
    outer loop
      vertex -3.63111 76.7525 10
      vertex -4.01873 75.5596 10
      vertex -1 61.2979 10
    endloop
  endfacet
  facet normal 0 0 1
    outer loop
      vertex -1 87 10
      vertex -4.6459 81.5267 10
      vertex -4.01873 80.4404 10
    endloop
  endfacet
  facet normal 0 0 1
    outer loop
      vertex -1 87 10
      vertex -3.63111 79.2475 10
      vertex -1 61.2979 10
    endloop
  endfacet
  facet normal 0 0 1
    outer loop
      vertex -1 87 10
      vertex -4.01873 80.4404 10
      vertex -3.63111 79.2475 10
    endloop
  endfacet
  facet normal 0 0 1
    outer loop
      vertex -3.63111 79.2475 10
      vertex -3.5 78 10
      vertex -1 61.2979 10
    endloop
  endfacet
  facet normal 0 -0 1
    outer loop
      vertex -5.48522 73.5411 10
      vertex -6.5 72.8038 10
      vertex -1 61.2979 10
    endloop
  endfacet
  facet normal 0 -0 1
    outer loop
      vertex -6.5 72.8038 10
      vertex -7.6459 72.2937 10
      vertex -1 61.2979 10
    endloop
  endfacet
  facet normal 0 -0 1
    outer loop
      vertex -7.6459 72.2937 10
      vertex -8.87283 72.0329 10
      vertex -1 61.2979 10
    endloop
  endfacet
  facet normal 0 -0 1
    outer loop
      vertex -25.3541 72.2937 10
      vertex -33 71.6953 10
      vertex -24.1272 72.0329 10
    endloop
  endfacet
  facet normal 0 -0 1
    outer loop
      vertex -26.5 72.8038 10
      vertex -33 71.6953 10
      vertex -25.3541 72.2937 10
    endloop
  endfacet
  facet normal 0 -0 1
    outer loop
      vertex -27.5148 73.5411 10
      vertex -33 71.6953 10
      vertex -26.5 72.8038 10
    endloop
  endfacet
  facet normal 0 -0 1
    outer loop
      vertex -28.3541 74.4733 10
      vertex -33 71.6953 10
      vertex -27.5148 73.5411 10
    endloop
  endfacet
  facet normal 0 -0 1
    outer loop
      vertex -28.9813 75.5596 10
      vertex -33 71.6953 10
      vertex -28.3541 74.4733 10
    endloop
  endfacet
  facet normal 0 -0 1
    outer loop
      vertex -29.3689 76.7525 10
      vertex -33 71.6953 10
      vertex -28.9813 75.5596 10
    endloop
  endfacet
  facet normal 0 0 1
    outer loop
      vertex -27.5148 82.4589 10
      vertex -26.5 83.1962 10
      vertex -33 87 10
    endloop
  endfacet
  facet normal 0 0 1
    outer loop
      vertex -24.1272 83.9671 10
      vertex -8.87283 83.9671 10
      vertex -1 87 10
    endloop
  endfacet
  facet normal 0 -0 1
    outer loop
      vertex -8.87283 72.0329 10
      vertex -24.1272 72.0329 10
      vertex -1 61.2979 10
    endloop
  endfacet
  facet normal -1 -0 -0
    outer loop
      vertex -2 -1 0
      vertex -2 -1 3
      vertex -2 61.6228 0
    endloop
  endfacet
  facet normal -1 0 0
    outer loop
      vertex -2 61.6228 0
      vertex -2 -1 3
      vertex -2 61.6228 3
    endloop
  endfacet
  facet normal 1 0 -0
    outer loop
      vertex -1 61.2979 10
      vertex -1 61.2979 6
      vertex -1 86 6
    endloop
  endfacet
  facet normal 1 0 0
    outer loop
      vertex -1 87 10
      vertex -1 61.2979 10
      vertex -1 86 6
    endloop
  endfacet
  facet normal 1 0 0
    outer loop
      vertex -1 86 3
      vertex -1 87 3
      vertex -1 86 6
    endloop
  endfacet
  facet normal 1 0 0
    outer loop
      vertex -1 87 3
      vertex -1 87 10
      vertex -1 86 6
    endloop
  endfacet
  facet normal 0 -0 1
    outer loop
      vertex -1 86 6
      vertex -1 61.2979 6
      vertex -0.0832137 61 6
    endloop
  endfacet
  facet normal 0 0 1
    outer loop
      vertex -0.1 71.5 6
      vertex 0.472949 73.2634 6
      vertex -1 86 6
    endloop
  endfacet
  facet normal -0 -0 1
    outer loop
      vertex -0.1 71.5 6
      vertex -1 86 6
      vertex -0.0832137 61 6
    endloop
  endfacet
  facet normal -0 0 1
    outer loop
      vertex 1.5 61 6
      vertex 0.472949 69.7366 6
      vertex -0.0832137 61 6
    endloop
  endfacet
  facet normal -0 0 1
    outer loop
      vertex 0.472949 69.7366 6
      vertex -0.1 71.5 6
      vertex -0.0832137 61 6
    endloop
  endfacet
  facet normal 0 0 1
    outer loop
      vertex 0.472949 73.2634 6
      vertex 1.5 74.0096 6
      vertex -1 86 6
    endloop
  endfacet
  facet normal 0 0 1
    outer loop
      vertex 1.5 86 6
      vertex -1 86 6
      vertex 1.5 74.0096 6
    endloop
  endfacet
  facet normal -0 0 1
    outer loop
      vertex 1.5 68.9904 6
      vertex 0.472949 69.7366 6
      vertex 1.5 61 6
    endloop
  endfacet
  facet normal 0 -1 0
    outer loop
      vertex -0.0832137 61 6
      vertex -0.0832137 61 3
      vertex 1.5 61 3
    endloop
  endfacet
  facet normal 0 -1 0
    outer loop
      vertex 1.5 61 6
      vertex -0.0832137 61 6
      vertex 1.5 61 3
    endloop
  endfacet
  facet normal 0 -0 1
    outer loop
      vertex 6.88215 1.82917 3
      vertex -2 -1 3
      vertex 57 -1 3
    endloop
  endfacet
  facet normal 0 0 1
    outer loop
      vertex 8.67226 9.09193 3
      vertex 9.94182 7.65889 3
      vertex 57 -1 3
    endloop
  endfacet
  facet normal 0 -0 1
    outer loop
      vertex -1 87 3
      vertex -1 86 3
      vertex 57 87 3
    endloop
  endfacet
  facet normal 0 0 1
    outer loop
      vertex -1 86 3
      vertex 1.5 86 3
      vertex 57 87 3
    endloop
  endfacet
  facet normal 0 0 1
    outer loop
      vertex 1.5 86 3
      vertex 1.97295 74.3532 3
      vertex 57 87 3
    endloop
  endfacet
  facet normal 0 -0 1
    outer loop
      vertex 1.5 86 3
      vertex 1.5 74.0096 3
      vertex 1.97295 74.3532 3
    endloop
  endfacet
  facet normal 0 0 1
    outer loop
      vertex 3.82705 74.3532 3
      vertex 5.32705 73.2634 3
      vertex 57 87 3
    endloop
  endfacet
  facet normal 0 0 1
    outer loop
      vertex 5.32705 73.2634 3
      vertex 5.9 71.5 3
      vertex 57 87 3
    endloop
  endfacet
  facet normal 0 0 1
    outer loop
      vertex 3.82705 68.6468 3
      vertex 57 87 3
      vertex 5.32705 69.7366 3
    endloop
  endfacet
  facet normal 0 -0 1
    outer loop
      vertex 5.9 71.5 3
      vertex 5.32705 69.7366 3
      vertex 57 87 3
    endloop
  endfacet
  facet normal 0 -0 1
    outer loop
      vertex 10.4 5.8 3
      vertex 9.94182 3.94111 3
      vertex 57 -1 3
    endloop
  endfacet
  facet normal 0 -0 1
    outer loop
      vertex 3.82705 68.6468 3
      vertex 1.5 61 3
      vertex 57 87 3
    endloop
  endfacet
  facet normal 0 0 1
    outer loop
      vertex 52.0418 7.65889 3
      vertex 52.5 5.8 3
      vertex 57 -1 3
    endloop
  endfacet
  facet normal 0 -0 1
    outer loop
      vertex -2 61.6228 3
      vertex -2 -1 3
      vertex 2.51623 4.84274 3
    endloop
  endfacet
  facet normal -0 0 1
    outer loop
      vertex 6.88215 1.82917 3
      vertex 4.98158 2.05993 3
      vertex -2 -1 3
    endloop
  endfacet
  facet normal 0 0 1
    outer loop
      vertex -2 61.6228 3
      vertex 2.51623 4.84274 3
      vertex 2.51623 6.75726 3
    endloop
  endfacet
  facet normal 0 0 1
    outer loop
      vertex -2 61.6228 3
      vertex 2.51623 6.75726 3
      vertex 3.40596 8.45249 3
    endloop
  endfacet
  facet normal 0 0 1
    outer loop
      vertex 9.94182 7.65889 3
      vertex 10.4 5.8 3
      vertex 57 -1 3
    endloop
  endfacet
  facet normal 0 0 1
    outer loop
      vertex -2 61.6228 3
      vertex 3.40596 8.45249 3
      vertex 4.98158 9.54006 3
    endloop
  endfacet
  facet normal -0 -0 1
    outer loop
      vertex 47.0816 2.05993 3
      vertex 6.88215 9.77083 3
      vertex 57 -1 3
    endloop
  endfacet
  facet normal 0 0 1
    outer loop
      vertex -2 61.6228 3
      vertex 4.98158 9.54006 3
      vertex 6.88215 9.77083 3
    endloop
  endfacet
  facet normal 0 0 1
    outer loop
      vertex 6.88215 9.77083 3
      vertex 8.67226 9.09193 3
      vertex 57 -1 3
    endloop
  endfacet
  facet normal 0 -0 1
    outer loop
      vertex 9.94182 3.94111 3
      vertex 8.67226 2.50806 3
      vertex 57 -1 3
    endloop
  endfacet
  facet normal 0 -0 1
    outer loop
      vertex 8.67226 2.50806 3
      vertex 6.88215 1.82917 3
      vertex 57 -1 3
    endloop
  endfacet
  facet normal 0 0 1
    outer loop
      vertex 45.506 8.45249 3
      vertex 47.0816 9.54006 3
      vertex -2 61.6228 3
    endloop
  endfacet
  facet normal 0 -0 1
    outer loop
      vertex 3.40596 3.14751 3
      vertex -2 -1 3
      vertex 4.98158 2.05993 3
    endloop
  endfacet
  facet normal 0 -0 1
    outer loop
      vertex 2.51623 4.84274 3
      vertex -2 -1 3
      vertex 3.40596 3.14751 3
    endloop
  endfacet
  facet normal 0 0 1
    outer loop
      vertex 47.0816 2.05993 3
      vertex 45.506 3.14751 3
      vertex 6.88215 9.77083 3
    endloop
  endfacet
  facet normal 0 0 1
    outer loop
      vertex -2 61.6228 3
      vertex 6.88215 9.77083 3
      vertex 44.6162 4.84274 3
    endloop
  endfacet
  facet normal 0 -0 1
    outer loop
      vertex 50.7723 2.50806 3
      vertex 48.9821 1.82917 3
      vertex 57 -1 3
    endloop
  endfacet
  facet normal 0 0 1
    outer loop
      vertex -2 61.6228 3
      vertex 44.6162 4.84274 3
      vertex 44.6162 6.75726 3
    endloop
  endfacet
  facet normal 0 0 1
    outer loop
      vertex -2 61.6228 3
      vertex 44.6162 6.75726 3
      vertex 45.506 8.45249 3
    endloop
  endfacet
  facet normal 0 -0 1
    outer loop
      vertex 52.5 5.8 3
      vertex 52.0418 3.94111 3
      vertex 57 -1 3
    endloop
  endfacet
  facet normal -0 -0 1
    outer loop
      vertex -0.0832137 61 3
      vertex -2 61.6228 3
      vertex 47.0816 9.54006 3
    endloop
  endfacet
  facet normal 0 -0 1
    outer loop
      vertex 52.0418 3.94111 3
      vertex 50.7723 2.50806 3
      vertex 57 -1 3
    endloop
  endfacet
  facet normal 0 0 1
    outer loop
      vertex 49.5729 69.7366 3
      vertex 1.5 61 3
      vertex 48.9821 9.77083 3
    endloop
  endfacet
  facet normal 0 0 1
    outer loop
      vertex 57 87 3
      vertex 48.9821 9.77083 3
      vertex 50.7723 9.09193 3
    endloop
  endfacet
  facet normal 0 0 1
    outer loop
      vertex 57 87 3
      vertex 52.0418 7.65889 3
      vertex 57 -1 3
    endloop
  endfacet
  facet normal 0 0 1
    outer loop
      vertex 57 87 3
      vertex 50.7723 9.09193 3
      vertex 52.0418 7.65889 3
    endloop
  endfacet
  facet normal 0 0 1
    outer loop
      vertex 47.0816 9.54006 3
      vertex 1.5 61 3
      vertex -0.0832137 61 3
    endloop
  endfacet
  facet normal 0 0 1
    outer loop
      vertex 47.0816 9.54006 3
      vertex 48.9821 9.77083 3
      vertex 1.5 61 3
    endloop
  endfacet
  facet normal -0 -0 1
    outer loop
      vertex 48.9821 1.82917 3
      vertex 47.0816 2.05993 3
      vertex 57 -1 3
    endloop
  endfacet
  facet normal 0 0 1
    outer loop
      vertex 49.5729 73.2634 3
      vertex 51.0729 74.3532 3
      vertex 57 87 3
    endloop
  endfacet
  facet normal -0 -0 1
    outer loop
      vertex 44.6162 4.84274 3
      vertex 6.88215 9.77083 3
      vertex 45.506 3.14751 3
    endloop
  endfacet
  facet normal -0 0 1
    outer loop
      vertex 51.0729 68.6468 3
      vertex 49.5729 69.7366 3
      vertex 48.9821 9.77083 3
    endloop
  endfacet
  facet normal 0 -0 1
    outer loop
      vertex 49 71.5 3
      vertex 1.5 61 3
      vertex 49.5729 69.7366 3
    endloop
  endfacet
  facet normal 0 0 1
    outer loop
      vertex 49.5729 73.2634 3
      vertex 1.5 61 3
      vertex 49 71.5 3
    endloop
  endfacet
  facet normal 0 0 1
    outer loop
      vertex 51.0729 74.3532 3
      vertex 52.9271 74.3532 3
      vertex 57 87 3
    endloop
  endfacet
  facet normal 0 0 1
    outer loop
      vertex 57 87 3
      vertex 1.5 61 3
      vertex 49.5729 73.2634 3
    endloop
  endfacet
  facet normal 0 0 1
    outer loop
      vertex 54.4271 69.7366 3
      vertex 52.9271 68.6468 3
      vertex 48.9821 9.77083 3
    endloop
  endfacet
  facet normal 0 0 1
    outer loop
      vertex 52.9271 68.6468 3
      vertex 51.0729 68.6468 3
      vertex 48.9821 9.77083 3
    endloop
  endfacet
  facet normal 0 0 1
    outer loop
      vertex 57 87 3
      vertex 52.9271 74.3532 3
      vertex 54.4271 73.2634 3
    endloop
  endfacet
  facet normal 0 0 1
    outer loop
      vertex 57 87 3
      vertex 55 71.5 3
      vertex 48.9821 9.77083 3
    endloop
  endfacet
  facet normal 0 0 1
    outer loop
      vertex 57 87 3
      vertex 54.4271 73.2634 3
      vertex 55 71.5 3
    endloop
  endfacet
  facet normal 0 0 1
    outer loop
      vertex 55 71.5 3
      vertex 54.4271 69.7366 3
      vertex 48.9821 9.77083 3
    endloop
  endfacet
  facet normal 0 0 1
    outer loop
      vertex 1.97295 74.3532 3
      vertex 3.82705 74.3532 3
      vertex 57 87 3
    endloop
  endfacet
  facet normal 0 -0 1
    outer loop
      vertex 1.97295 68.6468 3
      vertex 1.5 61 3
      vertex 3.82705 68.6468 3
    endloop
  endfacet
  facet normal 0 -0 1
    outer loop
      vertex 1.5 68.9904 3
      vertex 1.5 61 3
      vertex 1.97295 68.6468 3
    endloop
  endfacet
  facet normal 0 -1 0
    outer loop
      vertex -2 -1 3
      vertex -2 -1 0
      vertex 57 -1 0
    endloop
  endfacet
  facet normal 0 -1 0
    outer loop
      vertex 57 -1 3
      vertex -2 -1 3
      vertex 57 -1 0
    endloop
  endfacet
  facet normal 1 0 -0
    outer loop
      vertex 57 -1 3
      vertex 57 -1 0
      vertex 57 87 0
    endloop
  endfacet
  facet normal 1 0 0
    outer loop
      vertex 57 87 3
      vertex 57 -1 3
      vertex 57 87 0
    endloop
  endfacet
  facet normal 0.994522 -0.104528 0
    outer loop
      vertex -29.3689 79.2475 0
      vertex -29.3689 79.2475 10
      vertex -29.5 78 10
    endloop
  endfacet
  facet normal 0.994522 -0.104528 0
    outer loop
      vertex -29.5 78 0
      vertex -29.3689 79.2475 0
      vertex -29.5 78 10
    endloop
  endfacet
  facet normal 0.994522 0.104528 0
    outer loop
      vertex -29.5 78 10
      vertex -29.3689 76.7525 10
      vertex -29.3689 76.7525 0
    endloop
  endfacet
  facet normal 0.994522 0.104528 0
    outer loop
      vertex -29.5 78 0
      vertex -29.5 78 10
      vertex -29.3689 76.7525 0
    endloop
  endfacet
  facet normal 0.951057 -0.309017 0
    outer loop
      vertex -28.9813 80.4404 0
      vertex -28.9813 80.4404 10
      vertex -29.3689 79.2475 10
    endloop
  endfacet
  facet normal 0.951057 -0.309017 0
    outer loop
      vertex -29.3689 79.2475 0
      vertex -28.9813 80.4404 0
      vertex -29.3689 79.2475 10
    endloop
  endfacet
  facet normal 0.866025 -0.5 0
    outer loop
      vertex -28.3541 81.5267 0
      vertex -28.3541 81.5267 10
      vertex -28.9813 80.4404 10
    endloop
  endfacet
  facet normal 0.866025 -0.5 0
    outer loop
      vertex -28.9813 80.4404 0
      vertex -28.3541 81.5267 0
      vertex -28.9813 80.4404 10
    endloop
  endfacet
  facet normal 0.743145 -0.669131 0
    outer loop
      vertex -27.5148 82.4589 0
      vertex -27.5148 82.4589 10
      vertex -28.3541 81.5267 10
    endloop
  endfacet
  facet normal 0.743145 -0.669131 0
    outer loop
      vertex -28.3541 81.5267 0
      vertex -27.5148 82.4589 0
      vertex -28.3541 81.5267 10
    endloop
  endfacet
  facet normal 0.587785 -0.809017 0
    outer loop
      vertex -26.5 83.1962 0
      vertex -26.5 83.1962 10
      vertex -27.5148 82.4589 10
    endloop
  endfacet
  facet normal 0.587785 -0.809017 0
    outer loop
      vertex -27.5148 82.4589 0
      vertex -26.5 83.1962 0
      vertex -27.5148 82.4589 10
    endloop
  endfacet
  facet normal 0.406737 -0.913545 0
    outer loop
      vertex -25.3541 83.7063 0
      vertex -25.3541 83.7063 10
      vertex -26.5 83.1962 10
    endloop
  endfacet
  facet normal 0.406737 -0.913545 0
    outer loop
      vertex -26.5 83.1962 0
      vertex -25.3541 83.7063 0
      vertex -26.5 83.1962 10
    endloop
  endfacet
  facet normal 0.207912 -0.978148 0
    outer loop
      vertex -24.1272 83.9671 0
      vertex -24.1272 83.9671 10
      vertex -25.3541 83.7063 10
    endloop
  endfacet
  facet normal 0.207912 -0.978148 0
    outer loop
      vertex -25.3541 83.7063 0
      vertex -24.1272 83.9671 0
      vertex -25.3541 83.7063 10
    endloop
  endfacet
  facet normal 0 -1 0
    outer loop
      vertex -8.87283 83.9671 0
      vertex -8.87283 83.9671 10
      vertex -24.1272 83.9671 10
    endloop
  endfacet
  facet normal -0 -1 -0
    outer loop
      vertex -24.1272 83.9671 0
      vertex -8.87283 83.9671 0
      vertex -24.1272 83.9671 10
    endloop
  endfacet
  facet normal -0.207912 -0.978148 -0
    outer loop
      vertex -7.6459 83.7063 0
      vertex -7.6459 83.7063 10
      vertex -8.87283 83.9671 10
    endloop
  endfacet
  facet normal -0.207912 -0.978148 -0
    outer loop
      vertex -8.87283 83.9671 0
      vertex -7.6459 83.7063 0
      vertex -8.87283 83.9671 10
    endloop
  endfacet
  facet normal -0.406737 -0.913545 -0
    outer loop
      vertex -6.5 83.1962 0
      vertex -6.5 83.1962 10
      vertex -7.6459 83.7063 10
    endloop
  endfacet
  facet normal -0.406737 -0.913545 -0
    outer loop
      vertex -7.6459 83.7063 0
      vertex -6.5 83.1962 0
      vertex -7.6459 83.7063 10
    endloop
  endfacet
  facet normal -0.587785 -0.809017 -0
    outer loop
      vertex -5.48522 82.4589 0
      vertex -5.48522 82.4589 10
      vertex -6.5 83.1962 10
    endloop
  endfacet
  facet normal -0.587785 -0.809017 -0
    outer loop
      vertex -6.5 83.1962 0
      vertex -5.48522 82.4589 0
      vertex -6.5 83.1962 10
    endloop
  endfacet
  facet normal -0.743145 -0.669131 0
    outer loop
      vertex -4.6459 81.5267 10
      vertex -5.48522 82.4589 10
      vertex -4.6459 81.5267 0
    endloop
  endfacet
  facet normal -0.743145 -0.669131 0
    outer loop
      vertex -4.6459 81.5267 0
      vertex -5.48522 82.4589 10
      vertex -5.48522 82.4589 0
    endloop
  endfacet
  facet normal -0.866025 -0.5 0
    outer loop
      vertex -4.01873 80.4404 10
      vertex -4.6459 81.5267 10
      vertex -4.01873 80.4404 0
    endloop
  endfacet
  facet normal -0.866025 -0.5 0
    outer loop
      vertex -4.01873 80.4404 0
      vertex -4.6459 81.5267 10
      vertex -4.6459 81.5267 0
    endloop
  endfacet
  facet normal -0.951057 -0.309017 0
    outer loop
      vertex -3.63111 79.2475 10
      vertex -4.01873 80.4404 10
      vertex -3.63111 79.2475 0
    endloop
  endfacet
  facet normal -0.951057 -0.309017 0
    outer loop
      vertex -3.63111 79.2475 0
      vertex -4.01873 80.4404 10
      vertex -4.01873 80.4404 0
    endloop
  endfacet
  facet normal -0.994522 -0.104528 0
    outer loop
      vertex -3.5 78 10
      vertex -3.63111 79.2475 10
      vertex -3.5 78 0
    endloop
  endfacet
  facet normal -0.994522 -0.104528 0
    outer loop
      vertex -3.5 78 0
      vertex -3.63111 79.2475 10
      vertex -3.63111 79.2475 0
    endloop
  endfacet
  facet normal -0.994522 0.104528 0
    outer loop
      vertex -3.5 78 10
      vertex -3.5 78 0
      vertex -3.63111 76.7525 10
    endloop
  endfacet
  facet normal -0.994522 0.104528 0
    outer loop
      vertex -3.63111 76.7525 10
      vertex -3.5 78 0
      vertex -3.63111 76.7525 0
    endloop
  endfacet
  facet normal -0.951057 0.309017 0
    outer loop
      vertex -3.63111 76.7525 10
      vertex -3.63111 76.7525 0
      vertex -4.01873 75.5596 10
    endloop
  endfacet
  facet normal -0.951057 0.309017 0
    outer loop
      vertex -4.01873 75.5596 10
      vertex -3.63111 76.7525 0
      vertex -4.01873 75.5596 0
    endloop
  endfacet
  facet normal -0.866025 0.5 0
    outer loop
      vertex -4.01873 75.5596 10
      vertex -4.01873 75.5596 0
      vertex -4.6459 74.4733 10
    endloop
  endfacet
  facet normal -0.866025 0.5 0
    outer loop
      vertex -4.6459 74.4733 10
      vertex -4.01873 75.5596 0
      vertex -4.6459 74.4733 0
    endloop
  endfacet
  facet normal -0.743145 0.669131 0
    outer loop
      vertex -4.6459 74.4733 10
      vertex -4.6459 74.4733 0
      vertex -5.48522 73.5411 10
    endloop
  endfacet
  facet normal -0.743145 0.669131 0
    outer loop
      vertex -5.48522 73.5411 10
      vertex -4.6459 74.4733 0
      vertex -5.48522 73.5411 0
    endloop
  endfacet
  facet normal -0.587785 0.809017 0
    outer loop
      vertex -5.48522 73.5411 10
      vertex -5.48522 73.5411 0
      vertex -6.5 72.8038 10
    endloop
  endfacet
  facet normal -0.587785 0.809017 0
    outer loop
      vertex -6.5 72.8038 10
      vertex -5.48522 73.5411 0
      vertex -6.5 72.8038 0
    endloop
  endfacet
  facet normal -0.406737 0.913545 0
    outer loop
      vertex -6.5 72.8038 10
      vertex -6.5 72.8038 0
      vertex -7.6459 72.2937 10
    endloop
  endfacet
  facet normal -0.406737 0.913545 0
    outer loop
      vertex -7.6459 72.2937 10
      vertex -6.5 72.8038 0
      vertex -7.6459 72.2937 0
    endloop
  endfacet
  facet normal -0.207912 0.978148 0
    outer loop
      vertex -7.6459 72.2937 10
      vertex -7.6459 72.2937 0
      vertex -8.87283 72.0329 10
    endloop
  endfacet
  facet normal -0.207912 0.978148 0
    outer loop
      vertex -8.87283 72.0329 10
      vertex -7.6459 72.2937 0
      vertex -8.87283 72.0329 0
    endloop
  endfacet
  facet normal 0 1 0
    outer loop
      vertex -8.87283 72.0329 10
      vertex -8.87283 72.0329 0
      vertex -24.1272 72.0329 10
    endloop
  endfacet
  facet normal 0 1 -0
    outer loop
      vertex -24.1272 72.0329 10
      vertex -8.87283 72.0329 0
      vertex -24.1272 72.0329 0
    endloop
  endfacet
  facet normal 0.207912 0.978148 -0
    outer loop
      vertex -24.1272 72.0329 10
      vertex -24.1272 72.0329 0
      vertex -25.3541 72.2937 10
    endloop
  endfacet
  facet normal 0.207912 0.978148 -0
    outer loop
      vertex -25.3541 72.2937 10
      vertex -24.1272 72.0329 0
      vertex -25.3541 72.2937 0
    endloop
  endfacet
  facet normal 0.406737 0.913545 -0
    outer loop
      vertex -25.3541 72.2937 10
      vertex -25.3541 72.2937 0
      vertex -26.5 72.8038 10
    endloop
  endfacet
  facet normal 0.406737 0.913545 -0
    outer loop
      vertex -26.5 72.8038 10
      vertex -25.3541 72.2937 0
      vertex -26.5 72.8038 0
    endloop
  endfacet
  facet normal 0.587785 0.809017 -0
    outer loop
      vertex -26.5 72.8038 10
      vertex -26.5 72.8038 0
      vertex -27.5148 73.5411 10
    endloop
  endfacet
  facet normal 0.587785 0.809017 -0
    outer loop
      vertex -27.5148 73.5411 10
      vertex -26.5 72.8038 0
      vertex -27.5148 73.5411 0
    endloop
  endfacet
  facet normal 0.743145 0.669131 0
    outer loop
      vertex -28.3541 74.4733 10
      vertex -27.5148 73.5411 10
      vertex -27.5148 73.5411 0
    endloop
  endfacet
  facet normal 0.743145 0.669131 0
    outer loop
      vertex -28.3541 74.4733 0
      vertex -28.3541 74.4733 10
      vertex -27.5148 73.5411 0
    endloop
  endfacet
  facet normal 0.866025 0.5 0
    outer loop
      vertex -28.9813 75.5596 10
      vertex -28.3541 74.4733 10
      vertex -28.3541 74.4733 0
    endloop
  endfacet
  facet normal 0.866025 0.5 0
    outer loop
      vertex -28.9813 75.5596 0
      vertex -28.9813 75.5596 10
      vertex -28.3541 74.4733 0
    endloop
  endfacet
  facet normal 0.951057 0.309017 0
    outer loop
      vertex -29.3689 76.7525 10
      vertex -28.9813 75.5596 10
      vertex -28.9813 75.5596 0
    endloop
  endfacet
  facet normal 0.951057 0.309017 0
    outer loop
      vertex -29.3689 76.7525 0
      vertex -29.3689 76.7525 10
      vertex -28.9813 75.5596 0
    endloop
  endfacet
  facet normal 0.62349 -0.781831 4.43362e-15
    outer loop
      vertex 1.5 72.6883 6
      vertex 2.45496 73.4499 6.5
      vertex 1.09806 72.3678 6.5
    endloop
  endfacet
  facet normal 0.62349 -0.781831 0
    outer loop
      vertex 1.5 72.6883 6
      vertex 1.5 72.6883 2
      vertex 2.45496 73.4499 0
    endloop
  endfacet
  facet normal 0.62349 -0.781831 0
    outer loop
      vertex 2.45496 73.4499 0
      vertex 2.45496 73.4499 6.5
      vertex 1.5 72.6883 6
    endloop
  endfacet
  facet normal 0.62349 -0.781831 -3.72523e-15
    outer loop
      vertex 1.09806 72.3678 2
      vertex 2.45496 73.4499 0
      vertex 1.5 72.6883 2
    endloop
  endfacet
  facet normal 0.62349 -0.781831 0
    outer loop
      vertex 1.09806 72.3678 0
      vertex 2.45496 73.4499 0
      vertex 1.09806 72.3678 2
    endloop
  endfacet
  facet normal 0.62349 -0.781831 0
    outer loop
      vertex 1.09806 72.3678 6
      vertex 1.5 72.6883 6
      vertex 1.09806 72.3678 6.5
    endloop
  endfacet
  facet normal 1 0 0
    outer loop
      vertex 1.09806 72.3678 0
      vertex 1.09806 72.3678 2
      vertex 1.09806 70.6322 2
    endloop
  endfacet
  facet normal 1 0 0
    outer loop
      vertex 1.09806 70.6322 0
      vertex 1.09806 72.3678 0
      vertex 1.09806 70.6322 2
    endloop
  endfacet
  facet normal -0.222521 -0.974928 -0
    outer loop
      vertex 4.14698 73.0637 0
      vertex 4.14698 73.0637 6.5
      vertex 2.45496 73.4499 6.5
    endloop
  endfacet
  facet normal -0.222521 -0.974928 -0
    outer loop
      vertex 2.45496 73.4499 0
      vertex 4.14698 73.0637 0
      vertex 2.45496 73.4499 6.5
    endloop
  endfacet
  facet normal -0.900969 -0.433884 0
    outer loop
      vertex 4.9 71.5 6.5
      vertex 4.14698 73.0637 6.5
      vertex 4.9 71.5 0
    endloop
  endfacet
  facet normal -0.900969 -0.433884 0
    outer loop
      vertex 4.9 71.5 0
      vertex 4.14698 73.0637 6.5
      vertex 4.14698 73.0637 0
    endloop
  endfacet
  facet normal -0.900969 0.433884 0
    outer loop
      vertex 4.9 71.5 6.5
      vertex 4.9 71.5 0
      vertex 4.14698 69.9363 6.5
    endloop
  endfacet
  facet normal -0.900969 0.433884 0
    outer loop
      vertex 4.14698 69.9363 6.5
      vertex 4.9 71.5 0
      vertex 4.14698 69.9363 0
    endloop
  endfacet
  facet normal -0.222521 0.974928 0
    outer loop
      vertex 4.14698 69.9363 6.5
      vertex 4.14698 69.9363 0
      vertex 2.45496 69.5501 6.5
    endloop
  endfacet
  facet normal -0.222521 0.974928 0
    outer loop
      vertex 2.45496 69.5501 6.5
      vertex 4.14698 69.9363 0
      vertex 2.45496 69.5501 0
    endloop
  endfacet
  facet normal 0.62349 0.781831 -0
    outer loop
      vertex 1.09806 70.6322 6.5
      vertex 1.5 70.3117 6
      vertex 1.09806 70.6322 6
    endloop
  endfacet
  facet normal 0.62349 0.781831 4.47562e-15
    outer loop
      vertex 2.45496 69.5501 6.5
      vertex 1.5 70.3117 6
      vertex 1.09806 70.6322 6.5
    endloop
  endfacet
  facet normal 0.62349 0.781831 0
    outer loop
      vertex 1.5 70.3117 2
      vertex 1.5 70.3117 6
      vertex 2.45496 69.5501 6.5
    endloop
  endfacet
  facet normal 0.62349 0.781831 0
    outer loop
      vertex 1.5 70.3117 2
      vertex 2.45496 69.5501 6.5
      vertex 2.45496 69.5501 0
    endloop
  endfacet
  facet normal 0.62349 0.781831 -3.72523e-15
    outer loop
      vertex 1.5 70.3117 2
      vertex 2.45496 69.5501 0
      vertex 1.09806 70.6322 2
    endloop
  endfacet
  facet normal 0.62349 0.781831 0
    outer loop
      vertex 2.45496 69.5501 0
      vertex 1.09806 70.6322 0
      vertex 1.09806 70.6322 2
    endloop
  endfacet
  facet normal 0.62349 -0.781831 0
    outer loop
      vertex 5.95496 7.74986 0
      vertex 5.95496 7.74986 6.5
      vertex 4.59806 6.66777 6.5
    endloop
  endfacet
  facet normal 0.62349 -0.781831 0
    outer loop
      vertex 4.59806 6.66777 0
      vertex 5.95496 7.74986 0
      vertex 4.59806 6.66777 6.5
    endloop
  endfacet
  facet normal 1 0 0
    outer loop
      vertex 4.59806 6.66777 0
      vertex 4.59806 6.66777 6.5
      vertex 4.59806 4.93223 6.5
    endloop
  endfacet
  facet normal 1 0 0
    outer loop
      vertex 4.59806 4.93223 0
      vertex 4.59806 6.66777 0
      vertex 4.59806 4.93223 6.5
    endloop
  endfacet
  facet normal -0.222521 -0.974928 -0
    outer loop
      vertex 7.64698 7.36366 0
      vertex 7.64698 7.36366 6.5
      vertex 5.95496 7.74986 6.5
    endloop
  endfacet
  facet normal -0.222521 -0.974928 -0
    outer loop
      vertex 5.95496 7.74986 0
      vertex 7.64698 7.36366 0
      vertex 5.95496 7.74986 6.5
    endloop
  endfacet
  facet normal -0.900969 -0.433884 0
    outer loop
      vertex 8.4 5.8 6.5
      vertex 7.64698 7.36366 6.5
      vertex 8.4 5.8 0
    endloop
  endfacet
  facet normal -0.900969 -0.433884 0
    outer loop
      vertex 8.4 5.8 0
      vertex 7.64698 7.36366 6.5
      vertex 7.64698 7.36366 0
    endloop
  endfacet
  facet normal -0.900969 0.433884 0
    outer loop
      vertex 8.4 5.8 6.5
      vertex 8.4 5.8 0
      vertex 7.64698 4.23634 6.5
    endloop
  endfacet
  facet normal -0.900969 0.433884 0
    outer loop
      vertex 7.64698 4.23634 6.5
      vertex 8.4 5.8 0
      vertex 7.64698 4.23634 0
    endloop
  endfacet
  facet normal -0.222521 0.974928 0
    outer loop
      vertex 7.64698 4.23634 6.5
      vertex 7.64698 4.23634 0
      vertex 5.95496 3.85014 6.5
    endloop
  endfacet
  facet normal -0.222521 0.974928 0
    outer loop
      vertex 5.95496 3.85014 6.5
      vertex 7.64698 4.23634 0
      vertex 5.95496 3.85014 0
    endloop
  endfacet
  facet normal 0.62349 0.781831 -0
    outer loop
      vertex 5.95496 3.85014 6.5
      vertex 5.95496 3.85014 0
      vertex 4.59806 4.93223 6.5
    endloop
  endfacet
  facet normal 0.62349 0.781831 -0
    outer loop
      vertex 4.59806 4.93223 6.5
      vertex 5.95496 3.85014 0
      vertex 4.59806 4.93223 0
    endloop
  endfacet
  facet normal 0.62349 -0.781831 0
    outer loop
      vertex 48.055 7.74986 0
      vertex 48.055 7.74986 6.5
      vertex 46.6981 6.66777 6.5
    endloop
  endfacet
  facet normal 0.62349 -0.781831 0
    outer loop
      vertex 46.6981 6.66777 0
      vertex 48.055 7.74986 0
      vertex 46.6981 6.66777 6.5
    endloop
  endfacet
  facet normal 1 0 0
    outer loop
      vertex 46.6981 6.66777 0
      vertex 46.6981 6.66777 6.5
      vertex 46.6981 4.93223 6.5
    endloop
  endfacet
  facet normal 1 0 0
    outer loop
      vertex 46.6981 4.93223 0
      vertex 46.6981 6.66777 0
      vertex 46.6981 4.93223 6.5
    endloop
  endfacet
  facet normal -0.222521 -0.974928 -0
    outer loop
      vertex 49.747 7.36366 0
      vertex 49.747 7.36366 6.5
      vertex 48.055 7.74986 6.5
    endloop
  endfacet
  facet normal -0.222521 -0.974928 -0
    outer loop
      vertex 48.055 7.74986 0
      vertex 49.747 7.36366 0
      vertex 48.055 7.74986 6.5
    endloop
  endfacet
  facet normal -0.900969 -0.433884 0
    outer loop
      vertex 50.5 5.8 6.5
      vertex 49.747 7.36366 6.5
      vertex 50.5 5.8 0
    endloop
  endfacet
  facet normal -0.900969 -0.433884 0
    outer loop
      vertex 50.5 5.8 0
      vertex 49.747 7.36366 6.5
      vertex 49.747 7.36366 0
    endloop
  endfacet
  facet normal -0.900969 0.433884 0
    outer loop
      vertex 50.5 5.8 6.5
      vertex 50.5 5.8 0
      vertex 49.747 4.23634 6.5
    endloop
  endfacet
  facet normal -0.900969 0.433884 0
    outer loop
      vertex 49.747 4.23634 6.5
      vertex 50.5 5.8 0
      vertex 49.747 4.23634 0
    endloop
  endfacet
  facet normal -0.222521 0.974928 0
    outer loop
      vertex 49.747 4.23634 6.5
      vertex 49.747 4.23634 0
      vertex 48.055 3.85014 6.5
    endloop
  endfacet
  facet normal -0.222521 0.974928 0
    outer loop
      vertex 48.055 3.85014 6.5
      vertex 49.747 4.23634 0
      vertex 48.055 3.85014 0
    endloop
  endfacet
  facet normal 0.62349 0.781831 -0
    outer loop
      vertex 48.055 3.85014 6.5
      vertex 48.055 3.85014 0
      vertex 46.6981 4.93223 6.5
    endloop
  endfacet
  facet normal 0.62349 0.781831 -0
    outer loop
      vertex 46.6981 4.93223 6.5
      vertex 48.055 3.85014 0
      vertex 46.6981 4.93223 0
    endloop
  endfacet
  facet normal 0.62349 -0.781831 0
    outer loop
      vertex 51.555 73.4499 0
      vertex 51.555 73.4499 6.5
      vertex 50.1981 72.3678 6.5
    endloop
  endfacet
  facet normal 0.62349 -0.781831 0
    outer loop
      vertex 50.1981 72.3678 0
      vertex 51.555 73.4499 0
      vertex 50.1981 72.3678 6.5
    endloop
  endfacet
  facet normal 1 0 0
    outer loop
      vertex 50.1981 72.3678 0
      vertex 50.1981 72.3678 6.5
      vertex 50.1981 70.6322 6.5
    endloop
  endfacet
  facet normal 1 0 0
    outer loop
      vertex 50.1981 70.6322 0
      vertex 50.1981 72.3678 0
      vertex 50.1981 70.6322 6.5
    endloop
  endfacet
  facet normal -0.222521 -0.974928 -0
    outer loop
      vertex 53.247 73.0637 0
      vertex 53.247 73.0637 6.5
      vertex 51.555 73.4499 6.5
    endloop
  endfacet
  facet normal -0.222521 -0.974928 -0
    outer loop
      vertex 51.555 73.4499 0
      vertex 53.247 73.0637 0
      vertex 51.555 73.4499 6.5
    endloop
  endfacet
  facet normal -0.900969 -0.433884 0
    outer loop
      vertex 54 71.5 6.5
      vertex 53.247 73.0637 6.5
      vertex 54 71.5 0
    endloop
  endfacet
  facet normal -0.900969 -0.433884 0
    outer loop
      vertex 54 71.5 0
      vertex 53.247 73.0637 6.5
      vertex 53.247 73.0637 0
    endloop
  endfacet
  facet normal -0.900969 0.433884 0
    outer loop
      vertex 54 71.5 6.5
      vertex 54 71.5 0
      vertex 53.247 69.9363 6.5
    endloop
  endfacet
  facet normal -0.900969 0.433884 0
    outer loop
      vertex 53.247 69.9363 6.5
      vertex 54 71.5 0
      vertex 53.247 69.9363 0
    endloop
  endfacet
  facet normal -0.222521 0.974928 0
    outer loop
      vertex 53.247 69.9363 6.5
      vertex 53.247 69.9363 0
      vertex 51.555 69.5501 6.5
    endloop
  endfacet
  facet normal -0.222521 0.974928 0
    outer loop
      vertex 51.555 69.5501 6.5
      vertex 53.247 69.9363 0
      vertex 51.555 69.5501 0
    endloop
  endfacet
  facet normal 0.62349 0.781831 -0
    outer loop
      vertex 51.555 69.5501 6.5
      vertex 51.555 69.5501 0
      vertex 50.1981 70.6322 6.5
    endloop
  endfacet
  facet normal 0.62349 0.781831 -0
    outer loop
      vertex 50.1981 70.6322 6.5
      vertex 51.555 69.5501 0
      vertex 50.1981 70.6322 0
    endloop
  endfacet
  facet normal 0 1 0
    outer loop
      vertex -1 86 3
      vertex -1 86 6
      vertex 1.5 86 3
    endloop
  endfacet
  facet normal 0 1 0
    outer loop
      vertex 1.5 86 3
      vertex -1 86 6
      vertex 1.5 86 6
    endloop
  endfacet
  facet normal 1 0 -0
    outer loop
      vertex 1.5 74.0096 6
      vertex 1.5 74.0096 3
      vertex 1.5 86 3
    endloop
  endfacet
  facet normal 1 0 0
    outer loop
      vertex 1.5 86 6
      vertex 1.5 74.0096 6
      vertex 1.5 86 3
    endloop
  endfacet
  facet normal -0.587785 0.809017 0
    outer loop
      vertex 0.472949 73.2634 6
      vertex 0.472949 73.2634 6.5
      vertex 1.5 74.0096 6
    endloop
  endfacet
  facet normal -0.587785 0.809017 -5.2425e-15
    outer loop
      vertex 1.5 74.0096 6
      vertex 0.472949 73.2634 6.5
      vertex 1.97295 74.3532 6.5
    endloop
  endfacet
  facet normal -0.587785 0.809017 0
    outer loop
      vertex 1.5 74.0096 6
      vertex 1.97295 74.3532 6.5
      vertex 1.97295 74.3532 3
    endloop
  endfacet
  facet normal -0.587785 0.809017 0
    outer loop
      vertex 1.5 74.0096 6
      vertex 1.97295 74.3532 3
      vertex 1.5 74.0096 3
    endloop
  endfacet
  facet normal -0.951057 0.309017 0
    outer loop
      vertex -0.1 71.5 6
      vertex -0.1 71.5 6.5
      vertex 0.472949 73.2634 6
    endloop
  endfacet
  facet normal -0.951057 0.309017 0
    outer loop
      vertex 0.472949 73.2634 6
      vertex -0.1 71.5 6.5
      vertex 0.472949 73.2634 6.5
    endloop
  endfacet
  facet normal -0.951057 -0.309017 -0
    outer loop
      vertex -0.1 71.5 6
      vertex 0.472949 69.7366 6
      vertex -0.1 71.5 6.5
    endloop
  endfacet
  facet normal -0.951057 -0.309017 0
    outer loop
      vertex -0.1 71.5 6.5
      vertex 0.472949 69.7366 6
      vertex 0.472949 69.7366 6.5
    endloop
  endfacet
  facet normal -0.587785 -0.809017 0
    outer loop
      vertex 0.472949 69.7366 6.5
      vertex 0.472949 69.7366 6
      vertex 1.5 68.9904 6
    endloop
  endfacet
  facet normal -0.587785 -0.809017 -5.32177e-15
    outer loop
      vertex 1.97295 68.6468 6.5
      vertex 0.472949 69.7366 6.5
      vertex 1.5 68.9904 6
    endloop
  endfacet
  facet normal -0.587785 -0.809017 -0
    outer loop
      vertex 1.5 68.9904 3
      vertex 1.97295 68.6468 3
      vertex 1.5 68.9904 6
    endloop
  endfacet
  facet normal -0.587785 -0.809017 -0
    outer loop
      vertex 1.97295 68.6468 3
      vertex 1.97295 68.6468 6.5
      vertex 1.5 68.9904 6
    endloop
  endfacet
  facet normal 1 0 -0
    outer loop
      vertex 1.5 61 6
      vertex 1.5 61 3
      vertex 1.5 68.9904 3
    endloop
  endfacet
  facet normal 1 0 0
    outer loop
      vertex 1.5 68.9904 6
      vertex 1.5 61 6
      vertex 1.5 68.9904 3
    endloop
  endfacet
  facet normal 0 -1 0
    outer loop
      vertex 1.97295 68.6468 6.5
      vertex 1.97295 68.6468 3
      vertex 3.82705 68.6468 3
    endloop
  endfacet
  facet normal 0 -1 0
    outer loop
      vertex 3.82705 68.6468 6.5
      vertex 1.97295 68.6468 6.5
      vertex 3.82705 68.6468 3
    endloop
  endfacet
  facet normal 0.587785 -0.809017 0
    outer loop
      vertex 3.82705 68.6468 6.5
      vertex 3.82705 68.6468 3
      vertex 5.32705 69.7366 3
    endloop
  endfacet
  facet normal 0.587785 -0.809017 0
    outer loop
      vertex 5.32705 69.7366 6.5
      vertex 3.82705 68.6468 6.5
      vertex 5.32705 69.7366 3
    endloop
  endfacet
  facet normal 0.951057 -0.309017 0
    outer loop
      vertex 5.32705 69.7366 6.5
      vertex 5.32705 69.7366 3
      vertex 5.9 71.5 3
    endloop
  endfacet
  facet normal 0.951057 -0.309017 0
    outer loop
      vertex 5.9 71.5 6.5
      vertex 5.32705 69.7366 6.5
      vertex 5.9 71.5 3
    endloop
  endfacet
  facet normal 0.951057 0.309017 0
    outer loop
      vertex 5.9 71.5 3
      vertex 5.32705 73.2634 3
      vertex 5.32705 73.2634 6.5
    endloop
  endfacet
  facet normal 0.951057 0.309017 -0
    outer loop
      vertex 5.9 71.5 6.5
      vertex 5.9 71.5 3
      vertex 5.32705 73.2634 6.5
    endloop
  endfacet
  facet normal 0.587785 0.809017 0
    outer loop
      vertex 3.82705 74.3532 3
      vertex 3.82705 74.3532 6.5
      vertex 5.32705 73.2634 3
    endloop
  endfacet
  facet normal 0.587785 0.809017 0
    outer loop
      vertex 5.32705 73.2634 3
      vertex 3.82705 74.3532 6.5
      vertex 5.32705 73.2634 6.5
    endloop
  endfacet
  facet normal 0 1 0
    outer loop
      vertex 1.97295 74.3532 3
      vertex 1.97295 74.3532 6.5
      vertex 3.82705 74.3532 3
    endloop
  endfacet
  facet normal 0 1 0
    outer loop
      vertex 3.82705 74.3532 3
      vertex 1.97295 74.3532 6.5
      vertex 3.82705 74.3532 6.5
    endloop
  endfacet
  facet normal -1 -0 -0
    outer loop
      vertex 2.51623 4.84274 3
      vertex 2.51623 4.84274 6.5
      vertex 2.51623 6.75726 3
    endloop
  endfacet
  facet normal -1 0 0
    outer loop
      vertex 2.51623 6.75726 3
      vertex 2.51623 4.84274 6.5
      vertex 2.51623 6.75726 6.5
    endloop
  endfacet
  facet normal -0.885456 -0.464723 -0
    outer loop
      vertex 2.51623 4.84274 3
      vertex 3.40596 3.14751 3
      vertex 2.51623 4.84274 6.5
    endloop
  endfacet
  facet normal -0.885456 -0.464723 0
    outer loop
      vertex 2.51623 4.84274 6.5
      vertex 3.40596 3.14751 3
      vertex 3.40596 3.14751 6.5
    endloop
  endfacet
  facet normal -0.568065 -0.822984 0
    outer loop
      vertex 3.40596 3.14751 6.5
      vertex 3.40596 3.14751 3
      vertex 4.98158 2.05993 3
    endloop
  endfacet
  facet normal -0.568065 -0.822984 0
    outer loop
      vertex 4.98158 2.05993 6.5
      vertex 3.40596 3.14751 6.5
      vertex 4.98158 2.05993 3
    endloop
  endfacet
  facet normal -0.120536 -0.992709 0
    outer loop
      vertex 4.98158 2.05993 6.5
      vertex 4.98158 2.05993 3
      vertex 6.88215 1.82917 3
    endloop
  endfacet
  facet normal -0.120536 -0.992709 0
    outer loop
      vertex 6.88215 1.82917 6.5
      vertex 4.98158 2.05993 6.5
      vertex 6.88215 1.82917 3
    endloop
  endfacet
  facet normal 0.354605 -0.935016 0
    outer loop
      vertex 6.88215 1.82917 6.5
      vertex 6.88215 1.82917 3
      vertex 8.67226 2.50806 3
    endloop
  endfacet
  facet normal 0.354605 -0.935016 0
    outer loop
      vertex 8.67226 2.50806 6.5
      vertex 6.88215 1.82917 6.5
      vertex 8.67226 2.50806 3
    endloop
  endfacet
  facet normal 0.748511 -0.663123 0
    outer loop
      vertex 8.67226 2.50806 6.5
      vertex 8.67226 2.50806 3
      vertex 9.94182 3.94111 3
    endloop
  endfacet
  facet normal 0.748511 -0.663123 0
    outer loop
      vertex 9.94182 3.94111 6.5
      vertex 8.67226 2.50806 6.5
      vertex 9.94182 3.94111 3
    endloop
  endfacet
  facet normal 0.970942 -0.239316 0
    outer loop
      vertex 9.94182 3.94111 6.5
      vertex 9.94182 3.94111 3
      vertex 10.4 5.8 3
    endloop
  endfacet
  facet normal 0.970942 -0.239316 0
    outer loop
      vertex 10.4 5.8 6.5
      vertex 9.94182 3.94111 6.5
      vertex 10.4 5.8 3
    endloop
  endfacet
  facet normal 0.970942 0.239316 0
    outer loop
      vertex 10.4 5.8 3
      vertex 9.94182 7.65889 3
      vertex 9.94182 7.65889 6.5
    endloop
  endfacet
  facet normal 0.970942 0.239316 -0
    outer loop
      vertex 10.4 5.8 6.5
      vertex 10.4 5.8 3
      vertex 9.94182 7.65889 6.5
    endloop
  endfacet
  facet normal 0.748511 0.663123 0
    outer loop
      vertex 9.94182 7.65889 3
      vertex 8.67226 9.09193 3
      vertex 8.67226 9.09193 6.5
    endloop
  endfacet
  facet normal 0.748511 0.663123 -0
    outer loop
      vertex 9.94182 7.65889 6.5
      vertex 9.94182 7.65889 3
      vertex 8.67226 9.09193 6.5
    endloop
  endfacet
  facet normal 0.354605 0.935016 0
    outer loop
      vertex 6.88215 9.77083 3
      vertex 6.88215 9.77083 6.5
      vertex 8.67226 9.09193 3
    endloop
  endfacet
  facet normal 0.354605 0.935016 0
    outer loop
      vertex 8.67226 9.09193 3
      vertex 6.88215 9.77083 6.5
      vertex 8.67226 9.09193 6.5
    endloop
  endfacet
  facet normal -0.120536 0.992709 0
    outer loop
      vertex 4.98158 9.54006 3
      vertex 4.98158 9.54006 6.5
      vertex 6.88215 9.77083 3
    endloop
  endfacet
  facet normal -0.120536 0.992709 0
    outer loop
      vertex 6.88215 9.77083 3
      vertex 4.98158 9.54006 6.5
      vertex 6.88215 9.77083 6.5
    endloop
  endfacet
  facet normal -0.568065 0.822984 0
    outer loop
      vertex 3.40596 8.45249 3
      vertex 3.40596 8.45249 6.5
      vertex 4.98158 9.54006 3
    endloop
  endfacet
  facet normal -0.568065 0.822984 0
    outer loop
      vertex 4.98158 9.54006 3
      vertex 3.40596 8.45249 6.5
      vertex 4.98158 9.54006 6.5
    endloop
  endfacet
  facet normal -0.885456 0.464723 0
    outer loop
      vertex 2.51623 6.75726 3
      vertex 2.51623 6.75726 6.5
      vertex 3.40596 8.45249 3
    endloop
  endfacet
  facet normal -0.885456 0.464723 0
    outer loop
      vertex 3.40596 8.45249 3
      vertex 2.51623 6.75726 6.5
      vertex 3.40596 8.45249 6.5
    endloop
  endfacet
  facet normal -1 -0 -0
    outer loop
      vertex 44.6162 4.84274 3
      vertex 44.6162 4.84274 6.5
      vertex 44.6162 6.75726 3
    endloop
  endfacet
  facet normal -1 0 0
    outer loop
      vertex 44.6162 6.75726 3
      vertex 44.6162 4.84274 6.5
      vertex 44.6162 6.75726 6.5
    endloop
  endfacet
  facet normal -0.885456 -0.464723 -0
    outer loop
      vertex 44.6162 4.84274 3
      vertex 45.506 3.14751 3
      vertex 44.6162 4.84274 6.5
    endloop
  endfacet
  facet normal -0.885456 -0.464723 0
    outer loop
      vertex 44.6162 4.84274 6.5
      vertex 45.506 3.14751 3
      vertex 45.506 3.14751 6.5
    endloop
  endfacet
  facet normal -0.568065 -0.822984 0
    outer loop
      vertex 45.506 3.14751 6.5
      vertex 45.506 3.14751 3
      vertex 47.0816 2.05993 3
    endloop
  endfacet
  facet normal -0.568065 -0.822984 0
    outer loop
      vertex 47.0816 2.05993 6.5
      vertex 45.506 3.14751 6.5
      vertex 47.0816 2.05993 3
    endloop
  endfacet
  facet normal -0.120536 -0.992709 0
    outer loop
      vertex 47.0816 2.05993 6.5
      vertex 47.0816 2.05993 3
      vertex 48.9821 1.82917 3
    endloop
  endfacet
  facet normal -0.120536 -0.992709 0
    outer loop
      vertex 48.9821 1.82917 6.5
      vertex 47.0816 2.05993 6.5
      vertex 48.9821 1.82917 3
    endloop
  endfacet
  facet normal 0.354605 -0.935016 0
    outer loop
      vertex 48.9821 1.82917 6.5
      vertex 48.9821 1.82917 3
      vertex 50.7723 2.50806 3
    endloop
  endfacet
  facet normal 0.354605 -0.935016 0
    outer loop
      vertex 50.7723 2.50806 6.5
      vertex 48.9821 1.82917 6.5
      vertex 50.7723 2.50806 3
    endloop
  endfacet
  facet normal 0.748511 -0.663123 0
    outer loop
      vertex 50.7723 2.50806 6.5
      vertex 50.7723 2.50806 3
      vertex 52.0418 3.94111 3
    endloop
  endfacet
  facet normal 0.748511 -0.663123 0
    outer loop
      vertex 52.0418 3.94111 6.5
      vertex 50.7723 2.50806 6.5
      vertex 52.0418 3.94111 3
    endloop
  endfacet
  facet normal 0.970942 -0.239316 0
    outer loop
      vertex 52.0418 3.94111 6.5
      vertex 52.0418 3.94111 3
      vertex 52.5 5.8 3
    endloop
  endfacet
  facet normal 0.970942 -0.239316 0
    outer loop
      vertex 52.5 5.8 6.5
      vertex 52.0418 3.94111 6.5
      vertex 52.5 5.8 3
    endloop
  endfacet
  facet normal 0.970942 0.239316 0
    outer loop
      vertex 52.5 5.8 3
      vertex 52.0418 7.65889 3
      vertex 52.0418 7.65889 6.5
    endloop
  endfacet
  facet normal 0.970942 0.239316 -0
    outer loop
      vertex 52.5 5.8 6.5
      vertex 52.5 5.8 3
      vertex 52.0418 7.65889 6.5
    endloop
  endfacet
  facet normal 0.748511 0.663123 0
    outer loop
      vertex 52.0418 7.65889 3
      vertex 50.7723 9.09193 3
      vertex 50.7723 9.09193 6.5
    endloop
  endfacet
  facet normal 0.748511 0.663123 -0
    outer loop
      vertex 52.0418 7.65889 6.5
      vertex 52.0418 7.65889 3
      vertex 50.7723 9.09193 6.5
    endloop
  endfacet
  facet normal 0.354605 0.935016 0
    outer loop
      vertex 48.9821 9.77083 3
      vertex 48.9821 9.77083 6.5
      vertex 50.7723 9.09193 3
    endloop
  endfacet
  facet normal 0.354605 0.935016 0
    outer loop
      vertex 50.7723 9.09193 3
      vertex 48.9821 9.77083 6.5
      vertex 50.7723 9.09193 6.5
    endloop
  endfacet
  facet normal -0.120536 0.992709 0
    outer loop
      vertex 47.0816 9.54006 3
      vertex 47.0816 9.54006 6.5
      vertex 48.9821 9.77083 3
    endloop
  endfacet
  facet normal -0.120536 0.992709 0
    outer loop
      vertex 48.9821 9.77083 3
      vertex 47.0816 9.54006 6.5
      vertex 48.9821 9.77083 6.5
    endloop
  endfacet
  facet normal -0.568065 0.822984 0
    outer loop
      vertex 45.506 8.45249 3
      vertex 45.506 8.45249 6.5
      vertex 47.0816 9.54006 3
    endloop
  endfacet
  facet normal -0.568065 0.822984 0
    outer loop
      vertex 47.0816 9.54006 3
      vertex 45.506 8.45249 6.5
      vertex 47.0816 9.54006 6.5
    endloop
  endfacet
  facet normal -0.885456 0.464723 0
    outer loop
      vertex 44.6162 6.75726 3
      vertex 44.6162 6.75726 6.5
      vertex 45.506 8.45249 3
    endloop
  endfacet
  facet normal -0.885456 0.464723 0
    outer loop
      vertex 45.506 8.45249 3
      vertex 44.6162 6.75726 6.5
      vertex 45.506 8.45249 6.5
    endloop
  endfacet
  facet normal -0.951057 -0.309017 -0
    outer loop
      vertex 49 71.5 3
      vertex 49.5729 69.7366 3
      vertex 49 71.5 6.5
    endloop
  endfacet
  facet normal -0.951057 -0.309017 0
    outer loop
      vertex 49 71.5 6.5
      vertex 49.5729 69.7366 3
      vertex 49.5729 69.7366 6.5
    endloop
  endfacet
  facet normal -0.587785 -0.809017 0
    outer loop
      vertex 49.5729 69.7366 6.5
      vertex 49.5729 69.7366 3
      vertex 51.0729 68.6468 3
    endloop
  endfacet
  facet normal -0.587785 -0.809017 0
    outer loop
      vertex 51.0729 68.6468 6.5
      vertex 49.5729 69.7366 6.5
      vertex 51.0729 68.6468 3
    endloop
  endfacet
  facet normal 0 -1 0
    outer loop
      vertex 51.0729 68.6468 6.5
      vertex 51.0729 68.6468 3
      vertex 52.9271 68.6468 3
    endloop
  endfacet
  facet normal 0 -1 0
    outer loop
      vertex 52.9271 68.6468 6.5
      vertex 51.0729 68.6468 6.5
      vertex 52.9271 68.6468 3
    endloop
  endfacet
  facet normal 0.587785 -0.809017 0
    outer loop
      vertex 52.9271 68.6468 6.5
      vertex 52.9271 68.6468 3
      vertex 54.4271 69.7366 3
    endloop
  endfacet
  facet normal 0.587785 -0.809017 0
    outer loop
      vertex 54.4271 69.7366 6.5
      vertex 52.9271 68.6468 6.5
      vertex 54.4271 69.7366 3
    endloop
  endfacet
  facet normal 0.951057 -0.309017 0
    outer loop
      vertex 54.4271 69.7366 6.5
      vertex 54.4271 69.7366 3
      vertex 55 71.5 3
    endloop
  endfacet
  facet normal 0.951057 -0.309017 0
    outer loop
      vertex 55 71.5 6.5
      vertex 54.4271 69.7366 6.5
      vertex 55 71.5 3
    endloop
  endfacet
  facet normal 0.951057 0.309017 0
    outer loop
      vertex 55 71.5 3
      vertex 54.4271 73.2634 3
      vertex 54.4271 73.2634 6.5
    endloop
  endfacet
  facet normal 0.951057 0.309017 -0
    outer loop
      vertex 55 71.5 6.5
      vertex 55 71.5 3
      vertex 54.4271 73.2634 6.5
    endloop
  endfacet
  facet normal 0.587785 0.809017 0
    outer loop
      vertex 52.9271 74.3532 3
      vertex 52.9271 74.3532 6.5
      vertex 54.4271 73.2634 3
    endloop
  endfacet
  facet normal 0.587785 0.809017 0
    outer loop
      vertex 54.4271 73.2634 3
      vertex 52.9271 74.3532 6.5
      vertex 54.4271 73.2634 6.5
    endloop
  endfacet
  facet normal 0 1 0
    outer loop
      vertex 51.0729 74.3532 3
      vertex 51.0729 74.3532 6.5
      vertex 52.9271 74.3532 3
    endloop
  endfacet
  facet normal 0 1 0
    outer loop
      vertex 52.9271 74.3532 3
      vertex 51.0729 74.3532 6.5
      vertex 52.9271 74.3532 6.5
    endloop
  endfacet
  facet normal -0.587785 0.809017 0
    outer loop
      vertex 49.5729 73.2634 3
      vertex 49.5729 73.2634 6.5
      vertex 51.0729 74.3532 3
    endloop
  endfacet
  facet normal -0.587785 0.809017 0
    outer loop
      vertex 51.0729 74.3532 3
      vertex 49.5729 73.2634 6.5
      vertex 51.0729 74.3532 6.5
    endloop
  endfacet
  facet normal -0.951057 0.309017 0
    outer loop
      vertex 49 71.5 3
      vertex 49 71.5 6.5
      vertex 49.5729 73.2634 3
    endloop
  endfacet
  facet normal -0.951057 0.309017 0
    outer loop
      vertex 49.5729 73.2634 3
      vertex 49 71.5 6.5
      vertex 49.5729 73.2634 6.5
    endloop
  endfacet
  facet normal -0 -0 -1
    outer loop
      vertex 1.09806 70.6322 2
      vertex 1.09806 72.3678 2
      vertex 1.5 70.3117 2
    endloop
  endfacet
  facet normal 0 0 -1
    outer loop
      vertex 1.5 70.3117 2
      vertex 1.09806 72.3678 2
      vertex 1.5 72.6883 2
    endloop
  endfacet
  facet normal 1 0 -0
    outer loop
      vertex 1.5 70.3117 6
      vertex 1.5 70.3117 2
      vertex 1.5 72.6883 2
    endloop
  endfacet
  facet normal 1 0 0
    outer loop
      vertex 1.5 72.6883 6
      vertex 1.5 70.3117 6
      vertex 1.5 72.6883 2
    endloop
  endfacet
  facet normal 0 -0 1
    outer loop
      vertex 1.09806 72.3678 6
      vertex 1.09806 70.6322 6
      vertex 1.5 70.3117 6
    endloop
  endfacet
  facet normal 0 0 1
    outer loop
      vertex 1.5 72.6883 6
      vertex 1.09806 72.3678 6
      vertex 1.5 70.3117 6
    endloop
  endfacet
  facet normal 1 0 0
    outer loop
      vertex 1.09806 72.3678 6
      vertex 1.09806 72.3678 6.5
      vertex 1.09806 70.6322 6.5
    endloop
  endfacet
  facet normal 1 0 0
    outer loop
      vertex 1.09806 70.6322 6
      vertex 1.09806 72.3678 6
      vertex 1.09806 70.6322 6.5
    endloop
  endfacet
  facet normal 0 0 1
    outer loop
      vertex 0.472949 73.2634 6.5
      vertex -0.1 71.5 6.5
      vertex 0.472949 69.7366 6.5
    endloop
  endfacet
  facet normal 0 -0 1
    outer loop
      vertex 4.9 71.5 6.5
      vertex 4.14698 69.9363 6.5
      vertex 5.32705 69.7366 6.5
    endloop
  endfacet
  facet normal -0 0 1
    outer loop
      vertex 1.09806 70.6322 6.5
      vertex 0.472949 73.2634 6.5
      vertex 0.472949 69.7366 6.5
    endloop
  endfacet
  facet normal 0 0 1
    outer loop
      vertex 4.14698 69.9363 6.5
      vertex 2.45496 69.5501 6.5
      vertex 3.82705 68.6468 6.5
    endloop
  endfacet
  facet normal 0 -0 1
    outer loop
      vertex 1.97295 74.3532 6.5
      vertex 0.472949 73.2634 6.5
      vertex 3.82705 74.3532 6.5
    endloop
  endfacet
  facet normal 0 0 1
    outer loop
      vertex 1.97295 68.6468 6.5
      vertex 1.09806 70.6322 6.5
      vertex 0.472949 69.7366 6.5
    endloop
  endfacet
  facet normal 0 0 1
    outer loop
      vertex 2.45496 73.4499 6.5
      vertex 4.14698 73.0637 6.5
      vertex 5.32705 73.2634 6.5
    endloop
  endfacet
  facet normal 0 -0 1
    outer loop
      vertex 3.82705 74.3532 6.5
      vertex 2.45496 73.4499 6.5
      vertex 5.32705 73.2634 6.5
    endloop
  endfacet
  facet normal 0 0 1
    outer loop
      vertex 3.82705 74.3532 6.5
      vertex 0.472949 73.2634 6.5
      vertex 2.45496 73.4499 6.5
    endloop
  endfacet
  facet normal 0 -0 1
    outer loop
      vertex 5.32705 73.2634 6.5
      vertex 4.14698 73.0637 6.5
      vertex 5.9 71.5 6.5
    endloop
  endfacet
  facet normal 0 0 1
    outer loop
      vertex 4.14698 73.0637 6.5
      vertex 4.9 71.5 6.5
      vertex 5.9 71.5 6.5
    endloop
  endfacet
  facet normal 0 0 1
    outer loop
      vertex 5.9 71.5 6.5
      vertex 4.9 71.5 6.5
      vertex 5.32705 69.7366 6.5
    endloop
  endfacet
  facet normal -0 0 1
    outer loop
      vertex 5.32705 69.7366 6.5
      vertex 4.14698 69.9363 6.5
      vertex 3.82705 68.6468 6.5
    endloop
  endfacet
  facet normal -0 0 1
    outer loop
      vertex 3.82705 68.6468 6.5
      vertex 2.45496 69.5501 6.5
      vertex 1.97295 68.6468 6.5
    endloop
  endfacet
  facet normal 0 0 1
    outer loop
      vertex 1.09806 70.6322 6.5
      vertex 1.09806 72.3678 6.5
      vertex 0.472949 73.2634 6.5
    endloop
  endfacet
  facet normal -0 0 1
    outer loop
      vertex 2.45496 69.5501 6.5
      vertex 1.09806 70.6322 6.5
      vertex 1.97295 68.6468 6.5
    endloop
  endfacet
  facet normal 0 0 1
    outer loop
      vertex 1.09806 72.3678 6.5
      vertex 2.45496 73.4499 6.5
      vertex 0.472949 73.2634 6.5
    endloop
  endfacet
  facet normal 0 -0 1
    outer loop
      vertex 2.51623 6.75726 6.5
      vertex 2.51623 4.84274 6.5
      vertex 3.40596 3.14751 6.5
    endloop
  endfacet
  facet normal 0 0 1
    outer loop
      vertex 6.88215 1.82917 6.5
      vertex 2.51623 6.75726 6.5
      vertex 4.98158 2.05993 6.5
    endloop
  endfacet
  facet normal 0 0 1
    outer loop
      vertex 4.98158 2.05993 6.5
      vertex 2.51623 6.75726 6.5
      vertex 3.40596 3.14751 6.5
    endloop
  endfacet
  facet normal -0 -0 1
    outer loop
      vertex 4.59806 4.93223 6.5
      vertex 2.51623 6.75726 6.5
      vertex 6.88215 1.82917 6.5
    endloop
  endfacet
  facet normal 0 0 1
    outer loop
      vertex 4.59806 6.66777 6.5
      vertex 5.95496 7.74986 6.5
      vertex 2.51623 6.75726 6.5
    endloop
  endfacet
  facet normal 0 0 1
    outer loop
      vertex 5.95496 7.74986 6.5
      vertex 7.64698 7.36366 6.5
      vertex 9.94182 7.65889 6.5
    endloop
  endfacet
  facet normal 0 -0 1
    outer loop
      vertex 6.88215 9.77083 6.5
      vertex 2.51623 6.75726 6.5
      vertex 8.67226 9.09193 6.5
    endloop
  endfacet
  facet normal 0 -0 1
    outer loop
      vertex 4.98158 9.54006 6.5
      vertex 2.51623 6.75726 6.5
      vertex 6.88215 9.77083 6.5
    endloop
  endfacet
  facet normal 0 -0 1
    outer loop
      vertex 3.40596 8.45249 6.5
      vertex 2.51623 6.75726 6.5
      vertex 4.98158 9.54006 6.5
    endloop
  endfacet
  facet normal -0 -0 1
    outer loop
      vertex 5.95496 3.85014 6.5
      vertex 4.59806 4.93223 6.5
      vertex 6.88215 1.82917 6.5
    endloop
  endfacet
  facet normal 0 -0 1
    outer loop
      vertex 8.4 5.8 6.5
      vertex 7.64698 4.23634 6.5
      vertex 9.94182 3.94111 6.5
    endloop
  endfacet
  facet normal 0 0 1
    outer loop
      vertex 7.64698 7.36366 6.5
      vertex 8.4 5.8 6.5
      vertex 10.4 5.8 6.5
    endloop
  endfacet
  facet normal 0 -0 1
    outer loop
      vertex 8.67226 9.09193 6.5
      vertex 5.95496 7.74986 6.5
      vertex 9.94182 7.65889 6.5
    endloop
  endfacet
  facet normal 0 0 1
    outer loop
      vertex 8.67226 9.09193 6.5
      vertex 2.51623 6.75726 6.5
      vertex 5.95496 7.74986 6.5
    endloop
  endfacet
  facet normal 0 -0 1
    outer loop
      vertex 7.64698 4.23634 6.5
      vertex 5.95496 3.85014 6.5
      vertex 8.67226 2.50806 6.5
    endloop
  endfacet
  facet normal 0 0 1
    outer loop
      vertex 7.64698 7.36366 6.5
      vertex 10.4 5.8 6.5
      vertex 9.94182 7.65889 6.5
    endloop
  endfacet
  facet normal 0 0 1
    outer loop
      vertex 10.4 5.8 6.5
      vertex 8.4 5.8 6.5
      vertex 9.94182 3.94111 6.5
    endloop
  endfacet
  facet normal -0 0 1
    outer loop
      vertex 9.94182 3.94111 6.5
      vertex 7.64698 4.23634 6.5
      vertex 8.67226 2.50806 6.5
    endloop
  endfacet
  facet normal -0 0 1
    outer loop
      vertex 8.67226 2.50806 6.5
      vertex 5.95496 3.85014 6.5
      vertex 6.88215 1.82917 6.5
    endloop
  endfacet
  facet normal 0 0 1
    outer loop
      vertex 4.59806 4.93223 6.5
      vertex 4.59806 6.66777 6.5
      vertex 2.51623 6.75726 6.5
    endloop
  endfacet
  facet normal 0 -0 1
    outer loop
      vertex 44.6162 6.75726 6.5
      vertex 44.6162 4.84274 6.5
      vertex 45.506 3.14751 6.5
    endloop
  endfacet
  facet normal 0 0 1
    outer loop
      vertex 48.9821 1.82917 6.5
      vertex 44.6162 6.75726 6.5
      vertex 47.0816 2.05993 6.5
    endloop
  endfacet
  facet normal 0 0 1
    outer loop
      vertex 47.0816 2.05993 6.5
      vertex 44.6162 6.75726 6.5
      vertex 45.506 3.14751 6.5
    endloop
  endfacet
  facet normal -0 -0 1
    outer loop
      vertex 46.6981 4.93223 6.5
      vertex 44.6162 6.75726 6.5
      vertex 48.9821 1.82917 6.5
    endloop
  endfacet
  facet normal 0 0 1
    outer loop
      vertex 46.6981 6.66777 6.5
      vertex 48.055 7.74986 6.5
      vertex 44.6162 6.75726 6.5
    endloop
  endfacet
  facet normal 0 0 1
    outer loop
      vertex 48.055 7.74986 6.5
      vertex 49.747 7.36366 6.5
      vertex 52.0418 7.65889 6.5
    endloop
  endfacet
  facet normal 0 -0 1
    outer loop
      vertex 48.9821 9.77083 6.5
      vertex 44.6162 6.75726 6.5
      vertex 50.7723 9.09193 6.5
    endloop
  endfacet
  facet normal 0 -0 1
    outer loop
      vertex 47.0816 9.54006 6.5
      vertex 44.6162 6.75726 6.5
      vertex 48.9821 9.77083 6.5
    endloop
  endfacet
  facet normal 0 -0 1
    outer loop
      vertex 45.506 8.45249 6.5
      vertex 44.6162 6.75726 6.5
      vertex 47.0816 9.54006 6.5
    endloop
  endfacet
  facet normal -0 -0 1
    outer loop
      vertex 48.055 3.85014 6.5
      vertex 46.6981 4.93223 6.5
      vertex 48.9821 1.82917 6.5
    endloop
  endfacet
  facet normal 0 -0 1
    outer loop
      vertex 50.5 5.8 6.5
      vertex 49.747 4.23634 6.5
      vertex 52.0418 3.94111 6.5
    endloop
  endfacet
  facet normal 0 0 1
    outer loop
      vertex 49.747 7.36366 6.5
      vertex 50.5 5.8 6.5
      vertex 52.5 5.8 6.5
    endloop
  endfacet
  facet normal 0 -0 1
    outer loop
      vertex 50.7723 9.09193 6.5
      vertex 48.055 7.74986 6.5
      vertex 52.0418 7.65889 6.5
    endloop
  endfacet
  facet normal 0 0 1
    outer loop
      vertex 50.7723 9.09193 6.5
      vertex 44.6162 6.75726 6.5
      vertex 48.055 7.74986 6.5
    endloop
  endfacet
  facet normal 0 -0 1
    outer loop
      vertex 49.747 4.23634 6.5
      vertex 48.055 3.85014 6.5
      vertex 50.7723 2.50806 6.5
    endloop
  endfacet
  facet normal 0 0 1
    outer loop
      vertex 49.747 7.36366 6.5
      vertex 52.5 5.8 6.5
      vertex 52.0418 7.65889 6.5
    endloop
  endfacet
  facet normal 0 0 1
    outer loop
      vertex 52.5 5.8 6.5
      vertex 50.5 5.8 6.5
      vertex 52.0418 3.94111 6.5
    endloop
  endfacet
  facet normal -0 0 1
    outer loop
      vertex 52.0418 3.94111 6.5
      vertex 49.747 4.23634 6.5
      vertex 50.7723 2.50806 6.5
    endloop
  endfacet
  facet normal -0 0 1
    outer loop
      vertex 50.7723 2.50806 6.5
      vertex 48.055 3.85014 6.5
      vertex 48.9821 1.82917 6.5
    endloop
  endfacet
  facet normal 0 0 1
    outer loop
      vertex 46.6981 4.93223 6.5
      vertex 46.6981 6.66777 6.5
      vertex 44.6162 6.75726 6.5
    endloop
  endfacet
  facet normal 0 0 1
    outer loop
      vertex 49.5729 73.2634 6.5
      vertex 49 71.5 6.5
      vertex 49.5729 69.7366 6.5
    endloop
  endfacet
  facet normal 0 -0 1
    outer loop
      vertex 54 71.5 6.5
      vertex 53.247 69.9363 6.5
      vertex 54.4271 69.7366 6.5
    endloop
  endfacet
  facet normal -0 0 1
    outer loop
      vertex 50.1981 70.6322 6.5
      vertex 49.5729 73.2634 6.5
      vertex 49.5729 69.7366 6.5
    endloop
  endfacet
  facet normal 0 0 1
    outer loop
      vertex 53.247 69.9363 6.5
      vertex 51.555 69.5501 6.5
      vertex 52.9271 68.6468 6.5
    endloop
  endfacet
  facet normal 0 -0 1
    outer loop
      vertex 51.0729 74.3532 6.5
      vertex 49.5729 73.2634 6.5
      vertex 52.9271 74.3532 6.5
    endloop
  endfacet
  facet normal 0 0 1
    outer loop
      vertex 51.0729 68.6468 6.5
      vertex 50.1981 70.6322 6.5
      vertex 49.5729 69.7366 6.5
    endloop
  endfacet
  facet normal 0 0 1
    outer loop
      vertex 51.555 73.4499 6.5
      vertex 53.247 73.0637 6.5
      vertex 54.4271 73.2634 6.5
    endloop
  endfacet
  facet normal 0 -0 1
    outer loop
      vertex 52.9271 74.3532 6.5
      vertex 51.555 73.4499 6.5
      vertex 54.4271 73.2634 6.5
    endloop
  endfacet
  facet normal 0 0 1
    outer loop
      vertex 52.9271 74.3532 6.5
      vertex 49.5729 73.2634 6.5
      vertex 51.555 73.4499 6.5
    endloop
  endfacet
  facet normal 0 -0 1
    outer loop
      vertex 54.4271 73.2634 6.5
      vertex 53.247 73.0637 6.5
      vertex 55 71.5 6.5
    endloop
  endfacet
  facet normal 0 0 1
    outer loop
      vertex 53.247 73.0637 6.5
      vertex 54 71.5 6.5
      vertex 55 71.5 6.5
    endloop
  endfacet
  facet normal 0 0 1
    outer loop
      vertex 55 71.5 6.5
      vertex 54 71.5 6.5
      vertex 54.4271 69.7366 6.5
    endloop
  endfacet
  facet normal -0 0 1
    outer loop
      vertex 54.4271 69.7366 6.5
      vertex 53.247 69.9363 6.5
      vertex 52.9271 68.6468 6.5
    endloop
  endfacet
  facet normal -0 0 1
    outer loop
      vertex 52.9271 68.6468 6.5
      vertex 51.555 69.5501 6.5
      vertex 51.0729 68.6468 6.5
    endloop
  endfacet
  facet normal 0 0 1
    outer loop
      vertex 50.1981 70.6322 6.5
      vertex 50.1981 72.3678 6.5
      vertex 49.5729 73.2634 6.5
    endloop
  endfacet
  facet normal -0 0 1
    outer loop
      vertex 51.555 69.5501 6.5
      vertex 50.1981 70.6322 6.5
      vertex 51.0729 68.6468 6.5
    endloop
  endfacet
  facet normal 0 0 1
    outer loop
      vertex 50.1981 72.3678 6.5
      vertex 51.555 73.4499 6.5
      vertex 49.5729 73.2634 6.5
    endloop
  endfacet
endsolid OpenSCAD_Model
